Coordinates
version=1
nRows=16
nColumns=22
inDegrees=yes

Units are S.I. units (second, meters, Newtons, ...)
If the header above contains a line with 'inDegrees', this indicates whether rotational values are in degrees (yes) or radians (no).

endheader
time	pelvis_tilt	pelvis_list	pelvis_rotation	pelvis_tx	pelvis_ty	pelvis_tz	hip_flexion_r	hip_adduction_r	hip_rotation_r	knee_angle_r	ankle_angle_r	subtalar_angle_r	hip_flexion_l	hip_adduction_l	hip_rotation_l	knee_angle_l	ankle_angle_l	subtalar_angle_l	lumbar_extension	lumbar_bending	lumbar_rotation
      1.91000000	      4.81839247	      1.24924689	   -197.64073446	     -0.28293899	      0.94918462	      0.68651937	     24.76348181	      8.84770965	    -19.32785858	    -31.11544302	      9.85904230	     -7.62662393	    194.22359638	   -168.24546251	   -166.49155974	    -58.51141399	      6.10956568	      4.10967111	     -1.86488756	      8.50508601	    349.63967356
      1.92000000	      4.82356608	      1.23188952	   -198.75382188	     -0.28908578	      0.94987310	      0.67784401	     23.78235938	      9.71292491	    -18.39395933	    -30.47775400	     10.08115005	     -7.79203117	    195.20093616	   -168.24290736	   -166.09229116	    -58.17695980	      6.68386290	      3.39789514	     -1.77114645	      8.37451776	    350.06757033
      1.93000000	      4.83208232	      1.22582897	   -199.87735100	     -0.29507937	      0.95047825	      0.66915133	     22.77581800	     10.57044509	    -17.41462345	    -29.82498280	     10.28124902	     -7.96166443	    196.14758612	   -168.22552755	   -165.68716971	    -57.67862003	      7.27355763	      2.64508374	     -1.68292363	      8.25979397	    350.48186982
      1.94000000	      4.85776113	      1.22272556	   -201.01627750	     -0.30092008	      0.95098596	      0.66044719	     21.76086262	     11.41332052	    -16.39663362	    -29.15940720	     10.45117786	     -8.13059738	    197.07534816	   -168.19472646	   -165.28513603	    -57.01909821	      7.87695956	      1.85932076	     -1.58363733	      8.16006620	    350.89157895
      1.95000000	      4.89677374	      1.21743090	   -202.17629516	     -0.30661825	      0.95139508	      0.65173380	     20.73631346	     12.23460425	    -15.33801414	    -28.48751692	     10.60714859	     -8.29454924	    197.97719568	   -168.15634989	   -164.89474401	    -56.20468758	      8.49236525	      1.07251313	     -1.47531772	      8.07106882	    351.30205225
      1.96000000	      4.95014761	      1.20268006	   -203.36494093	     -0.31215760	      0.95169888	      0.64302454	     19.71037198	     13.02789370	    -14.22930516	    -27.81746002	     10.74472872	     -8.45037211	    198.85632622	   -168.12063350	   -164.51789443	    -55.24892400	      9.11352006	      0.30763953	     -1.35890438	      7.98933964	    351.72012294
      1.97000000	      5.02336545	      1.17028626	   -204.58541565	     -0.31753070	      0.95188167	      0.63434605	     18.69843554	     13.78269073	    -13.07863683	    -27.16216708	     10.87023532	     -8.60251616	    199.72170358	   -168.09858344	   -164.15154901	    -54.16558074	      9.73539448	     -0.44182567	     -1.22802724	      7.91387801	    352.14670910
      1.98000000	      5.11570229	      1.11619576	   -205.84136374	     -0.32272672	      0.95193950	      0.62570585	     17.70729977	     14.49623434	    -11.88104335	    -26.53084423	     10.98504863	     -8.74768867	    200.57475054	   -168.10035270	   -163.78596222	    -52.96963852	     10.34293085	     -1.13814963	     -1.08441962	      7.84319583	    352.58294747
      1.99000000	      5.21749007	      1.03505982	   -207.13796775	     -0.32775702	      0.95188917	      0.61711713	     16.72860939	     15.15738388	    -10.63914260	    -25.92424916	     11.09309555	     -8.88479974	    201.40664849	   -168.13634606	   -163.42655163	    -51.67350043	     10.91250192	     -1.74761951	     -0.93619912	      7.77196471	    353.02880949
      2.00000000	      5.33261557	      0.92475460	   -208.46690645	     -0.33261575	      0.95171964	      0.60859814	     15.77542760	     15.76312623	     -9.36614931	    -25.35095463	     11.19285912	     -9.01965364	    202.23131223	   -168.21554247	   -163.05244979	    -50.30002274	     11.42438059	     -2.26907976	     -0.77779371	      7.70124895	    353.47711857
      2.01000000	      5.45334936	      0.78498501	   -209.82555758	     -0.33730909	      0.95144140	      0.60016262	     14.84550293	     16.30905350	     -8.06549970	    -24.81602335	     11.28523229	     -9.14804092	    203.04620289	   -168.34659827	   -162.65364944	    -48.86999969	     11.86021500	     -2.66375685	     -0.61696281	      7.62899772	    353.93183767
      2.02000000	      5.57103444	      0.62349214	   -211.20665698	     -0.34185554	      0.95106423	      0.59181715	     13.93010453	     16.79656316	     -6.74934134	    -24.32088088	     11.38716149	     -9.27693933	    203.84617108	   -168.53037149	   -162.22027009	    -47.40354000	     12.20992570	     -2.94613445	     -0.46443249	      7.55899382	    354.39145482
      2.03000000	      5.67853504	      0.43989336	   -212.60329124	     -0.34627944	      0.95060408	      0.58356273	     13.02263265	     17.22051295	     -5.42516109	    -23.86037589	     11.49564433	     -9.39502949	    204.62936948	   -168.76935150	   -161.75777017	    -45.91420651	     12.45839161	     -3.08417579	     -0.32400548	      7.48721805	    354.84980025
      2.04000000	      5.77067967	      0.24290279	   -214.00597190	     -0.35060455	      0.95006718	      0.57538661	     12.11578823	     17.58547294	     -4.10468065	    -23.43171251	     11.61970211	     -9.49779835	    205.39514808	   -169.05698902	   -161.26735566	    -44.42035150	     12.59041453	     -3.07860604	     -0.20141234	      7.41521833	    355.30359111
      2.05000000	      5.83871390	      0.03915494	   -215.40689724	     -0.35485916	      0.94947208	      0.56728119	     11.19840254	     17.89123382	     -2.79449281	    -23.03070661	     11.76188259	     -9.57949361	    206.13637272	   -169.38868954	   -160.76298267	    -42.93017459	     12.59191653	     -2.92911763	     -0.10575109	      7.34208096	    355.74566007
      2.06000000	      5.88258500	     -0.16276547	   -216.79604182	     -0.35906344	      0.94882454	      0.55923068	     10.26692100	     18.14387836	     -1.50427951	    -22.65299009	     11.92603184	     -9.63278895	    206.85560573	   -169.75281589	   -160.25838864	    -41.45356859	     12.44151390	     -2.63779821	     -0.03880031	      7.27125382	    356.17055731
